<svg width="111" height="18" viewBox="0 0 111 18" fill="none" xmlns="http://www.w3.org/2000/svg">
<path d="M11.8097 7.45455C11.8097 8.85227 11.554 10.054 11.0426 11.0597C10.5313 12.0611 9.83026 12.8324 8.93963 13.3736C8.05327 13.9105 7.04545 14.179 5.91619 14.179C4.78267 14.179 3.7706 13.9105 2.87997 13.3736C1.99361 12.8324 1.29474 12.0589 0.783381 11.0533C0.272017 10.0476 0.0163353 8.84801 0.0163353 7.45455C0.0163353 6.05682 0.272017 4.85724 0.783381 3.85582C1.29474 2.85014 1.99361 2.07883 2.87997 1.5419C3.7706 1.00071 4.78267 0.730113 5.91619 0.730113C7.04545 0.730113 8.05327 1.00071 8.93963 1.5419C9.83026 2.07883 10.5313 2.85014 11.0426 3.85582C11.554 4.85724 11.8097 6.05682 11.8097 7.45455ZM9.85369 7.45455C9.85369 6.3892 9.68111 5.49219 9.33594 4.76349C8.99503 4.03054 8.52628 3.47656 7.92969 3.10156C7.33736 2.7223 6.66619 2.53267 5.91619 2.53267C5.16193 2.53267 4.48864 2.7223 3.89631 3.10156C3.30398 3.47656 2.83523 4.03054 2.49006 4.76349C2.14915 5.49219 1.97869 6.3892 1.97869 7.45455C1.97869 8.51989 2.14915 9.41903 2.49006 10.152C2.83523 10.8807 3.30398 11.4347 3.89631 11.8139C4.48864 12.1889 5.16193 12.3764 5.91619 12.3764C6.66619 12.3764 7.33736 12.1889 7.92969 11.8139C8.52628 11.4347 8.99503 10.8807 9.33594 10.152C9.68111 9.41903 9.85369 8.51989 9.85369 7.45455ZM14.1188 17.6818V4.18182H15.9853V5.77344H16.1451C16.2559 5.56889 16.4157 5.33239 16.6245 5.06392C16.8333 4.79545 17.123 4.56108 17.4938 4.3608C17.8645 4.15625 18.3546 4.05398 18.964 4.05398C19.7566 4.05398 20.464 4.25426 21.0861 4.65483C21.7083 5.0554 22.1962 5.63281 22.5499 6.38707C22.9078 7.14133 23.0868 8.04901 23.0868 9.11009C23.0868 10.1712 22.91 11.081 22.5563 11.8395C22.2026 12.5937 21.7168 13.1754 21.0989 13.5845C20.481 13.9893 19.7757 14.1918 18.9831 14.1918C18.3865 14.1918 17.8986 14.0916 17.5194 13.8913C17.1444 13.6911 16.8503 13.4567 16.6373 13.1882C16.4242 12.9197 16.2601 12.6811 16.1451 12.4723H16.03V17.6818H14.1188ZM15.9917 9.09091C15.9917 9.78125 16.0918 10.3864 16.2921 10.9062C16.4924 11.4261 16.7821 11.8331 17.1614 12.1271C17.5407 12.4169 18.0051 12.5618 18.5549 12.5618C19.1259 12.5618 19.6032 12.4105 19.9867 12.108C20.3702 11.8011 20.66 11.3857 20.856 10.8615C21.0563 10.3374 21.1564 9.74716 21.1564 9.09091C21.1564 8.44318 21.0584 7.86151 20.8624 7.34588C20.6706 6.83026 20.3809 6.4233 19.9931 6.125C19.6096 5.8267 19.1301 5.67756 18.5549 5.67756C18.0009 5.67756 17.5321 5.82031 17.1486 6.10582C16.7694 6.39133 16.4817 6.78977 16.2857 7.30114C16.0897 7.8125 15.9917 8.40909 15.9917 9.09091ZM29.8113 4.18182V5.71591H24.4483V4.18182H29.8113ZM25.8865 1.82955H27.7978V11.1172C27.7978 11.4879 27.8532 11.767 27.964 11.9545C28.0748 12.1378 28.2175 12.2635 28.3922 12.3317C28.5712 12.3956 28.7651 12.4276 28.9739 12.4276C29.1273 12.4276 29.2615 12.4169 29.3766 12.3956C29.4917 12.3743 29.5811 12.3572 29.6451 12.3445L29.9902 13.9233C29.8794 13.9659 29.7218 14.0085 29.5172 14.0511C29.3127 14.098 29.057 14.1236 28.7502 14.1278C28.2473 14.1364 27.7786 14.0469 27.3439 13.8594C26.9093 13.6719 26.5577 13.3821 26.2892 12.9901C26.0208 12.598 25.8865 12.1058 25.8865 11.5135V1.82955ZM31.9254 14V4.18182H33.8366V14H31.9254ZM32.8906 2.6669C32.5582 2.6669 32.2727 2.55611 32.0341 2.33452C31.7997 2.10866 31.6825 1.8402 31.6825 1.52912C31.6825 1.21378 31.7997 0.945312 32.0341 0.723721C32.2727 0.497869 32.5582 0.384943 32.8906 0.384943C33.223 0.384943 33.5064 0.497869 33.7408 0.723721C33.9794 0.945312 34.0987 1.21378 34.0987 1.52912C34.0987 1.8402 33.9794 2.10866 33.7408 2.33452C33.5064 2.55611 33.223 2.6669 32.8906 2.6669ZM36.4078 14V4.18182H38.2424V5.77983H38.3638C38.5684 5.23864 38.9029 4.81676 39.3674 4.5142C39.8319 4.20739 40.388 4.05398 41.0357 4.05398C41.6919 4.05398 42.2417 4.20739 42.6848 4.5142C43.1323 4.82102 43.4625 5.2429 43.6756 5.77983H43.7779C44.0123 5.25568 44.3851 4.83807 44.8965 4.52699C45.4078 4.21165 46.0172 4.05398 46.7246 4.05398C47.6152 4.05398 48.3418 4.3331 48.9043 4.89134C49.4711 5.44957 49.7544 6.29119 49.7544 7.41619V14H47.8432V7.59517C47.8432 6.9304 47.6621 6.44886 47.2999 6.15057C46.9377 5.85227 46.5051 5.70312 46.0023 5.70312C45.3801 5.70312 44.8965 5.89489 44.5513 6.27841C44.2061 6.65767 44.0336 7.1456 44.0336 7.74219V14H42.1287V7.47372C42.1287 6.94105 41.9625 6.51278 41.6301 6.18892C41.2978 5.86506 40.8652 5.70312 40.3326 5.70312C39.9703 5.70312 39.6358 5.79901 39.329 5.99077C39.0265 6.17827 38.7814 6.44034 38.5939 6.77699C38.4107 7.11364 38.3191 7.50355 38.3191 7.94673V14H36.4078ZM58.5355 9.92827V4.18182H60.4531V14H58.5739V12.2997H58.4716C58.2457 12.8239 57.8835 13.2607 57.3849 13.6101C56.8906 13.9553 56.2749 14.1278 55.5376 14.1278C54.907 14.1278 54.3487 13.9893 53.8629 13.7124C53.3814 13.4311 53.0021 13.0156 52.7251 12.4659C52.4524 11.9162 52.3161 11.2365 52.3161 10.4268V4.18182H54.2273V10.1967C54.2273 10.8658 54.4126 11.3984 54.7834 11.7947C55.1541 12.1911 55.6357 12.3892 56.228 12.3892C56.5859 12.3892 56.9418 12.2997 57.2955 12.1207C57.6534 11.9418 57.9496 11.6712 58.1839 11.3089C58.4226 10.9467 58.5398 10.4865 58.5355 9.92827ZM70.3784 6.57884L68.6461 6.88565C68.5737 6.66406 68.4586 6.45312 68.301 6.25284C68.1475 6.05256 67.9387 5.88849 67.6745 5.76065C67.4103 5.63281 67.0801 5.56889 66.6838 5.56889C66.1426 5.56889 65.6909 5.69034 65.3287 5.93324C64.9664 6.17187 64.7853 6.48082 64.7853 6.86009C64.7853 7.18821 64.9068 7.45241 65.1497 7.6527C65.3926 7.85298 65.7846 8.01705 66.3258 8.14489L67.8855 8.50284C68.7889 8.71165 69.4622 9.03338 69.9054 9.46804C70.3485 9.9027 70.5701 10.4673 70.5701 11.1619C70.5701 11.75 70.3997 12.2741 70.0588 12.7344C69.7221 13.1903 69.2512 13.5483 68.6461 13.8082C68.0453 14.0682 67.3485 14.1982 66.5559 14.1982C65.4565 14.1982 64.5595 13.9638 63.8649 13.495C63.1703 13.022 62.7441 12.3509 62.5865 11.4815L64.4338 11.2003C64.5488 11.6818 64.7853 12.0462 65.1433 12.2933C65.5012 12.5362 65.9679 12.6577 66.5431 12.6577C67.1696 12.6577 67.6703 12.5277 68.0453 12.2678C68.4203 12.0036 68.6078 11.6818 68.6078 11.3026C68.6078 10.9957 68.4927 10.7379 68.2626 10.5291C68.0368 10.3203 67.6895 10.1626 67.2207 10.0561L65.5588 9.69176C64.6426 9.48295 63.965 9.15057 63.5261 8.6946C63.0914 8.23864 62.8741 7.66122 62.8741 6.96236C62.8741 6.38281 63.036 5.87571 63.3599 5.44105C63.6838 5.00639 64.1312 4.66761 64.7022 4.42472C65.2733 4.17756 65.9274 4.05398 66.6646 4.05398C67.7257 4.05398 68.5609 4.28409 69.1703 4.74432C69.7797 5.20028 70.1824 5.81179 70.3784 6.57884ZM70.8434 2.60938V0.909091H80.9748V2.60938H76.8903V14H74.9215V2.60938H70.8434ZM85.8679 14.1982C84.9006 14.1982 84.0675 13.9915 83.3686 13.5781C82.674 13.1605 82.1371 12.5746 81.7578 11.8203C81.3828 11.0618 81.1953 10.1733 81.1953 9.15483C81.1953 8.14915 81.3828 7.26278 81.7578 6.49574C82.1371 5.72869 82.6655 5.12997 83.343 4.69957C84.0249 4.26918 84.8217 4.05398 85.7337 4.05398C86.2876 4.05398 86.8246 4.1456 87.3445 4.32884C87.8643 4.51207 88.331 4.79972 88.7443 5.19176C89.1577 5.58381 89.4837 6.09304 89.7223 6.71946C89.9609 7.34162 90.0803 8.09801 90.0803 8.98864V9.66619H82.2756V8.23438H88.2074C88.2074 7.73153 88.1051 7.28622 87.9006 6.89844C87.696 6.50639 87.4084 6.19744 87.0376 5.97159C86.6712 5.74574 86.2408 5.63281 85.7464 5.63281C85.2095 5.63281 84.7408 5.76491 84.3402 6.02912C83.9439 6.28906 83.6371 6.62997 83.4197 7.05185C83.2067 7.46946 83.1001 7.9233 83.1001 8.41335V9.53196C83.1001 10.1882 83.2152 10.7464 83.4453 11.2067C83.6797 11.6669 84.0057 12.0185 84.4233 12.2614C84.8409 12.5 85.3288 12.6193 85.8871 12.6193C86.2493 12.6193 86.5795 12.5682 86.8778 12.4659C87.1761 12.3594 87.4339 12.2017 87.6513 11.9929C87.8686 11.7841 88.0348 11.5263 88.1499 11.2195L89.9588 11.5455C89.8139 12.0781 89.554 12.5447 89.179 12.9453C88.8082 13.3416 88.3416 13.6506 87.7791 13.8722C87.2209 14.0895 86.5838 14.1982 85.8679 14.1982ZM96.3365 14.1982C95.3862 14.1982 94.568 13.983 93.8819 13.5526C93.2001 13.1179 92.676 12.5192 92.3095 11.7564C91.943 10.9936 91.7598 10.12 91.7598 9.13565C91.7598 8.13849 91.9473 7.25852 92.3223 6.49574C92.6973 5.72869 93.2257 5.12997 93.9075 4.69957C94.5893 4.26918 95.3926 4.05398 96.3173 4.05398C97.063 4.05398 97.7278 4.19247 98.3116 4.46946C98.8954 4.74219 99.3663 5.12571 99.7243 5.62003C100.086 6.11435 100.302 6.69176 100.37 7.35227H98.5098C98.4075 6.89205 98.1731 6.49574 97.8066 6.16335C97.4444 5.83097 96.9586 5.66477 96.3493 5.66477C95.8166 5.66477 95.35 5.8054 94.9494 6.08665C94.5531 6.36364 94.2441 6.75994 94.0225 7.27557C93.801 7.78693 93.6902 8.39205 93.6902 9.09091C93.6902 9.80682 93.7988 10.4247 94.0162 10.9446C94.2335 11.4645 94.5403 11.8672 94.9366 12.1527C95.3372 12.4382 95.8081 12.581 96.3493 12.581C96.7115 12.581 97.0396 12.5149 97.3336 12.3828C97.6319 12.2464 97.8812 12.0526 98.0815 11.8011C98.286 11.5497 98.4288 11.2472 98.5098 10.8935H100.37C100.302 11.5284 100.095 12.0952 99.7498 12.5938C99.4047 13.0923 98.9423 13.4844 98.3627 13.7699C97.7875 14.0554 97.112 14.1982 96.3365 14.1982ZM104.325 8.17045V14H102.414V0.909091H104.299V5.77983H104.421C104.651 5.25142 105.002 4.83168 105.475 4.5206C105.949 4.20952 106.566 4.05398 107.329 4.05398C108.002 4.05398 108.591 4.19247 109.093 4.46946C109.6 4.74645 109.993 5.1598 110.27 5.70952C110.551 6.25497 110.691 6.93679 110.691 7.75497V14H108.78V7.98509C108.78 7.26491 108.595 6.70668 108.224 6.31037C107.853 5.9098 107.338 5.70952 106.677 5.70952C106.225 5.70952 105.821 5.8054 105.463 5.99716C105.109 6.18892 104.83 6.47017 104.625 6.84091C104.425 7.20739 104.325 7.65057 104.325 8.17045Z" fill="#3A404E"/>
</svg>
